<svg width="22" height="22" viewBox="0 0 22 22" fill="none" xmlns="http://www.w3.org/2000/svg"><g clip-path="url(#clip0_9806_39703)"><mask id="mask0_9806_39703" maskUnits="userSpaceOnUse" x="0" y="0" width="22" height="22" style="mask-type: luminance;"><path d="M22 0H0V22H22V0Z" fill="white"></path></mask><g mask="url(#mask0_9806_39703)"><mask id="mask1_9806_39703" maskUnits="userSpaceOnUse" x="1" y="1" width="20" height="20" style="mask-type: luminance;"><path d="M1.22266 1.22217H20.7782V20.7777H1.22266V1.22217Z" fill="white"></path></mask><g mask="url(#mask1_9806_39703)"><path d="M8.48139 7.27931L10.2379 3.77998C10.441 3.37653 10.9323 3.2146 11.333 3.4177C11.4894 3.49729 11.6157 3.62628 11.6953 3.78547L13.3557 7.16129C13.4902 7.43849 13.7565 7.62512 14.0611 7.6608L17.533 8.07798C18.005 8.13561 18.3426 8.56651 18.2877 9.04132C18.263 9.23619 18.1752 9.41733 18.0352 9.55456L15.2879 12.2634C15.1754 12.3732 15.1232 12.5269 15.1425 12.6834L15.6008 16.3391C15.6667 16.8633 15.2962 17.3409 14.7747 17.4068C14.5771 17.4315 14.3795 17.3958 14.2038 17.2997L11.3028 15.7134C11.0915 15.5981 10.839 15.5954 10.6276 15.7051L7.61959 17.2476C7.19693 17.4644 6.68095 17.2942 6.46413 16.8688C6.38179 16.7097 6.35434 16.5313 6.37905 16.3556L6.61782 14.6759C6.73584 13.8553 7.24359 13.1417 7.97913 12.7657L11.3165 11.0613C11.4044 11.0174 11.44 10.9076 11.3961 10.8171C11.3604 10.7484 11.2863 10.7073 11.2095 10.7183L7.12557 11.3056C6.50255 11.3934 5.8713 11.2178 5.38002 10.8171L4.02146 9.70825C3.63447 9.39263 3.57135 8.81627 3.88698 8.42654C4.03518 8.2454 4.24651 8.12738 4.47706 8.09719L7.96266 7.64982C8.18497 7.61963 8.37984 7.4824 8.48139 7.27931Z" fill="url(#paint0_linear_9806_39703)"></path><path d="M11.5722 4.40315C11.2182 4.32355 10.8422 4.49372 10.672 4.83405L8.91272 8.33337C8.81117 8.53647 8.61905 8.6737 8.394 8.70389L4.90839 9.154C4.68334 9.18419 4.47749 9.29397 4.33203 9.46688L5.62198 10.5208C6.02818 10.8529 6.55513 10.9984 7.07386 10.9242L11.155 10.3397C11.3966 10.3067 11.6326 10.4275 11.7396 10.6443C11.8796 10.9215 11.7698 11.2618 11.4926 11.4045L10.4277 11.948L11.6408 11.7723C11.7177 11.7613 11.7945 11.8025 11.8275 11.8711C11.8741 11.9617 11.8357 12.0715 11.7479 12.1154L8.41046 13.8198C7.67492 14.1958 7.16717 14.9094 7.04916 15.73L6.89272 16.8196C7.03543 16.9623 7.26049 17.0007 7.44712 16.9047L10.4497 15.3622C10.7763 15.1948 11.1633 15.2003 11.4844 15.3759L14.3854 16.9623C14.4897 17.0199 14.6104 17.0419 14.7285 17.0282C15.0359 16.9897 15.2582 16.7043 15.2197 16.3887L14.7641 12.7302C14.7312 12.4557 14.8245 12.184 15.0194 11.9919L17.7667 9.28299C17.8134 9.23634 17.849 9.18145 17.8737 9.12107L14.4924 8.71487C14.1878 8.67919 13.9243 8.48981 13.7871 8.21536L13.6553 7.94364C13.3781 7.82288 13.1503 7.60881 13.0131 7.3316L11.5722 4.40315Z" fill="url(#paint1_linear_9806_39703)"></path><path d="M11.5059 3.0746C10.913 2.77544 10.194 3.01422 9.89754 3.60705L8.13827 7.10912C8.09436 7.19694 8.00928 7.25732 7.91322 7.2683L4.42761 7.71841C4.09827 7.75958 3.79636 7.92974 3.58777 8.18773C3.14041 8.74214 3.22549 9.55453 3.77715 10.0046L5.13846 11.1162C5.71207 11.5828 6.45036 11.7886 7.18042 11.6843L10.065 11.2699L7.80344 12.4254C6.95536 12.859 6.37351 13.6769 6.23903 14.621L5.99751 16.3007C5.96183 16.5559 6.003 16.8139 6.12101 17.0445C6.43115 17.6565 7.18316 17.9008 7.7952 17.5879L10.8005 16.0454C10.8993 15.9933 11.0173 15.996 11.1161 16.0509L14.0171 17.6345C14.2614 17.769 14.5441 17.8239 14.8213 17.7882C15.5541 17.6949 16.0701 17.0225 15.9795 16.2925L15.5239 12.6339C15.5184 12.5983 15.5321 12.5598 15.5568 12.5351L18.3042 9.82624C18.5045 9.62589 18.6335 9.36516 18.6664 9.08521C18.746 8.40181 18.263 7.78154 17.5796 7.6992L14.105 7.28203C13.9321 7.26281 13.7784 7.15303 13.6988 6.99385L12.0411 3.61528C11.9258 3.38199 11.7364 3.19262 11.5059 3.0746ZM10.5809 3.95012C10.688 3.73604 10.9487 3.65096 11.16 3.758C11.2424 3.79917 11.311 3.87052 11.3522 3.95561L13.0126 7.33143C13.2048 7.7239 13.5808 7.99013 14.0144 8.04227L17.489 8.45945C17.7498 8.48964 17.9364 8.72841 17.9062 8.99464C17.8925 9.10442 17.8431 9.20597 17.7662 9.28282L15.0189 11.9917C14.824 12.1838 14.7307 12.4555 14.7637 12.73L15.2193 16.3885C15.2577 16.7041 15.0354 16.9896 14.728 17.028C14.61 17.0417 14.4892 17.0198 14.3849 16.9621L11.4839 15.3758C11.1628 15.2001 10.7758 15.1974 10.4492 15.3648L7.4439 16.9072C7.21061 17.0253 6.92517 16.9319 6.80441 16.6959C6.7605 16.6081 6.74403 16.5065 6.75775 16.4077L6.99653 14.7308C7.09534 14.0337 7.52898 13.4271 8.152 13.1087L11.4894 11.4044C11.7693 11.2617 11.8791 10.9213 11.7392 10.6441C11.6294 10.4273 11.3961 10.3065 11.1546 10.3395L7.07064 10.9241C6.55191 10.9982 6.0277 10.8527 5.6215 10.5206L4.26294 9.40907C4.03788 9.22518 4.00221 8.89309 4.18609 8.66803C4.27117 8.56374 4.39193 8.49513 4.52367 8.47866L8.00928 8.02855C8.36058 7.98464 8.66523 7.76781 8.82442 7.45219L10.5809 3.95012Z" fill="url(#paint2_linear_9806_39703)"></path></g></g></g><defs><linearGradient id="paint0_linear_9806_39703" x1="10.9899" y1="3.32987" x2="10.9899" y2="17.415" gradientUnits="userSpaceOnUse"><stop stop-color="#FFF0C2"></stop><stop offset="1" stop-color="#FFEBBA"></stop></linearGradient><linearGradient id="paint1_linear_9806_39703" x1="11.1029" y1="4.38394" x2="14.9672" y2="17.0309" gradientUnits="userSpaceOnUse"><stop stop-color="#FFD147"></stop><stop offset="1" stop-color="#FFB526"></stop></linearGradient><linearGradient id="paint2_linear_9806_39703" x1="10.9899" y1="2.9456" x2="14.3794" y2="17.7965" gradientUnits="userSpaceOnUse"><stop stop-color="#E58F0D"></stop><stop offset="1" stop-color="#EB7814"></stop></linearGradient><clipPath id="clip0_9806_39703"><rect width="22" height="22" fill="white"></rect></clipPath></defs></svg>